<svg width="15" height="14" viewBox="0 0 15 14" fill="none" xmlns="http://www.w3.org/2000/svg">
<path d="M4.21654 1.86683C4.09713 1.86683 3.97759 1.91232 3.88659 2.00355L2.95326 2.93688C2.77079 3.11935 2.77079 3.41478 2.95326 3.59678L6.35664 7.00016L2.95326 10.4035C2.77079 10.586 2.77079 10.8814 2.95326 11.0634L3.88659 11.9968C4.06906 12.1792 4.36449 12.1792 4.54649 11.9968L7.94987 8.59339L11.3533 11.9968C11.5353 12.1792 11.8312 12.1792 12.0132 11.9968L12.9465 11.0634C13.129 10.881 13.129 10.5855 12.9465 10.4035L9.5431 7.00016L12.9465 3.59678C13.129 3.41478 13.129 3.11888 12.9465 2.93688L12.0132 2.00355C11.8307 1.82108 11.5353 1.82108 11.3533 2.00355L7.94987 5.40693L4.54649 2.00355C4.45525 1.91232 4.33595 1.86683 4.21654 1.86683Z" fill="white"/>
</svg>
